<svg width="40" height="29" viewBox="0 0 40 29" fill="none" xmlns="http://www.w3.org/2000/svg">
<path d="M0.528524 9.83326C0.528524 11.3761 0.95998 12.8359 1.72895 14.1353C2.80313 15.9506 4.53594 17.4529 6.67128 18.4315C8.38818 19.2183 10.3653 19.6665 12.4696 19.6665C19.0644 19.6665 24.4106 15.264 24.4106 9.83326C24.4106 4.4025 19.0644 0 12.4696 0C5.87472 0 0.528524 4.4025 0.528524 9.83326Z" fill="#B1CEFF"/>
<path d="M6.67128 18.4315C5.44656 18.3862 2.53784 18.4846 0.70075 19.241C0.60507 19.3041 0.356297 19.4207 0.126661 19.3829C-0.102974 19.3451 0.0309792 19.0204 0.126661 18.8628C0.582491 17.4446 1.54111 14.5135 1.72895 14.1353C2.80313 15.9506 4.53594 17.4529 6.67128 18.4315Z" fill="#B1CEFF"/>
<path d="M29.2672 22.7907L29.2673 22.791C29.2682 22.7931 29.268 22.7929 29.2672 22.7907ZM26.9616 22.8905C27.7535 22.9715 28.5448 23.1181 29.1355 23.3519C29.2175 23.3977 29.316 23.4418 29.4236 23.4757C29.5658 23.5203 29.7817 23.5653 30.0253 23.5252C30.2772 23.4837 30.5304 23.3308 30.6638 23.0514C30.772 22.8247 30.7532 22.6106 30.7365 22.505C30.7106 22.3419 30.6489 22.1958 30.5949 22.0921C30.4217 21.5542 30.1658 20.768 29.9328 20.0713C29.8113 19.7078 29.6951 19.366 29.5998 19.0956C29.573 19.0196 29.546 18.9438 29.5197 18.8718C30.0512 17.8638 30.3495 16.7439 30.3495 15.5628C30.3495 10.9117 25.8276 7.37598 20.5686 7.37598C15.3095 7.37598 10.7876 10.9117 10.7876 15.5628C10.7876 20.214 15.3095 23.7497 20.5686 23.7497C22.2091 23.7497 23.7605 23.412 25.1247 22.811C25.5664 22.8019 26.2412 22.8168 26.9616 22.8905Z" fill="#B1CEFF" stroke="#F9FBFF" stroke-width="1.5"/>
<circle cx="33" cy="22" r="7" fill="#FFCF27"/>
<path d="M34.3022 26H32.75V20.0166L30.897 20.5913V19.3291L34.1357 18.1689H34.3022V26Z" fill="white"/>
</svg>
