<svg width="165" height="165" viewBox="0 0 165 165" fill="none" xmlns="http://www.w3.org/2000/svg">
<g id="&#208;&#184;&#208;&#186;&#208;&#190;&#208;&#189;&#208;&#186;&#208;&#176; &#208;&#163;&#208;&#187;&#209;&#131;&#209;&#135;&#209;&#136;&#208;&#184;&#209;&#130;&#208;&#181; &#208;&#189;&#208;&#176;&#208;&#191;&#208;&#184;&#209;&#129;&#208;&#176;&#208;&#189;&#208;&#189;&#209;&#131;&#209;&#142; &#209;&#128;&#208;&#176;&#208;&#177;&#208;&#190;&#209;&#130;&#209;&#131;">
<g id="Rectangle 55" filter="url(#filter0_d_73_12141)">
<rect x="23" y="15" width="119" height="119" rx="14" fill="#FEFEFF"/>
</g>
<g id="Group">
<g id="Group_2">
<g id="Group_3">
<path id="Vector" d="M70.6742 33.7192C54.6686 33.8038 46.6331 61.2225 43.6341 75.3164C40.6352 89.4105 43.7688 118.323 67.0303 114.488C70.7903 113.868 71.6679 113.741 74.7674 112.191C80.2842 109.433 86.8132 107.492 92.7134 106.906C95.1328 106.666 98.192 105.87 99.811 105.58C112.794 103.255 126.043 90.7261 122.032 77.5983C119.02 67.7395 110.194 63.7708 101.356 64.3164C96.5016 64.616 91.3357 61.7798 90.2998 58.6466C86.9256 48.441 83.045 33.6539 70.6742 33.7192Z" fill="url(#paint0_linear_73_12141)"/>
</g>
<g id="Group_4">
<path id="Vector_2" opacity="0.1" d="M113.133 46.3643C114.508 46.3643 115.622 47.4744 115.622 48.8438V89.5373C115.622 90.1405 115.478 90.7349 115.2 91.271L113.84 93.8992C113.544 94.4715 112.722 94.4715 112.426 93.8992L111.066 91.271C110.788 90.7349 110.644 90.1405 110.644 89.5373V48.8438C110.644 47.4744 111.758 46.3643 113.133 46.3643Z" fill="#3A85F4"/>
<path id="Vector_3" opacity="0.1" d="M103.824 110.428H60.0873C58.3304 110.428 56.9062 109.01 56.9062 107.26V49.3744C56.9062 47.6244 58.3304 46.2058 60.0873 46.2058H103.824C105.581 46.2058 107.006 47.6244 107.006 49.3744V107.26C107.006 109.009 105.581 110.428 103.824 110.428Z" fill="#3A85F4"/>
<path id="Vector_4" d="M103.824 106.151H60.0873C58.3304 106.151 56.9062 104.733 56.9062 102.983V45.0976C56.9062 43.3475 58.3304 41.929 60.0873 41.929H103.824C105.581 41.929 107.006 43.3475 107.006 45.0976V102.983C107.006 104.733 105.581 106.151 103.824 106.151Z" fill="#D4EBFF"/>
<path id="Vector_5" fill-rule="evenodd" clip-rule="evenodd" d="M103.83 106.943H60.0925C57.9 106.943 56.1162 105.166 56.1162 102.982V45.0967C56.1162 42.9128 57.9 41.136 60.0925 41.136H80.3375H103.83C106.022 41.136 107.806 42.9128 107.806 45.0967V102.982C107.806 105.166 106.022 106.943 103.83 106.943ZM60.0925 42.7203H80.3375H103.83C105.145 42.7203 106.215 43.7864 106.215 45.0967V102.982C106.215 104.292 105.145 105.358 103.83 105.358H60.0925C58.777 105.358 57.7067 104.292 57.7067 102.982V45.0967C57.7067 43.7864 58.777 42.7203 60.0925 42.7203Z" fill="#3A85F4"/>
<path id="Vector_6" d="M103.19 46.5231V101.555C103.19 101.994 102.833 102.347 102.394 102.347H92.9396C92.5334 102.347 93.2441 102.347 92.9396 102.347H71.0038C70.6994 102.347 71.3082 102.347 71.0038 102.347H61.5209C61.0819 102.347 60.7256 101.994 60.7256 101.555V46.5231C60.7256 46.0843 61.0819 45.731 61.5209 45.731H71.0038L92.9115 45.731L102.394 45.731C102.833 45.731 103.19 46.0843 103.19 46.5231Z" fill="white"/>
<g id="Group_5">
<path id="Vector_7" d="M53.3245 63.8128H52.8473V63.3376C52.8473 62.9 52.4912 62.5454 52.0521 62.5454C51.6129 62.5454 51.2568 62.9 51.2568 63.3376V63.8128H50.7796C50.3405 63.8128 49.9844 64.1674 49.9844 64.605C49.9844 65.0426 50.3405 65.3971 50.7796 65.3971H51.2568V65.8724C51.2568 66.31 51.6129 66.6646 52.0521 66.6646C52.4912 66.6646 52.8473 66.31 52.8473 65.8724V65.3971H53.3245C53.7636 65.3971 54.1198 65.0426 54.1198 64.605C54.1198 64.1674 53.7636 63.8128 53.3245 63.8128Z" fill="#81C2FF"/>
<path id="Vector_8" d="M113.765 100.458H113.288V99.9831C113.288 99.5455 112.932 99.1909 112.492 99.1909C112.053 99.1909 111.697 99.5455 111.697 99.9831V100.458H111.22C110.781 100.458 110.425 100.813 110.425 101.251C110.425 101.688 110.781 102.043 111.22 102.043H111.697V102.518C111.697 102.956 112.053 103.31 112.492 103.31C112.932 103.31 113.288 102.956 113.288 102.518V102.043H113.765C114.204 102.043 114.56 101.688 114.56 101.251C114.56 100.813 114.204 100.458 113.765 100.458Z" fill="#D4EBFF"/>
<path id="Vector_9" d="M50.304 70.8946H49.8268V70.4193C49.8268 69.9818 49.4707 69.6272 49.0316 69.6272C48.5924 69.6272 48.2363 69.9818 48.2363 70.4193V70.8946H47.7591C47.32 70.8946 46.9639 71.2492 46.9639 71.6868C46.9639 72.1244 47.32 72.4789 47.7591 72.4789H48.2363V72.9542C48.2363 73.3918 48.5924 73.7464 49.0316 73.7464C49.4707 73.7464 49.8268 73.3918 49.8268 72.9542V72.4789H50.304C50.7431 72.4789 51.0993 72.1244 51.0993 71.6868C51.0993 71.2492 50.7431 70.8946 50.304 70.8946Z" fill="#D4EBFF"/>
<path id="Vector_10" d="M51.5745 45.5729C51.3709 45.5729 51.1674 45.4956 51.012 45.3408L50.302 44.6336L49.592 45.3408C49.2814 45.6502 48.778 45.6502 48.4673 45.3408C48.1567 45.0315 48.1567 44.5299 48.4673 44.2207L49.7398 42.9533C50.0504 42.6438 50.5538 42.6438 50.8644 42.9533L52.1369 44.2207C52.4475 44.5299 52.4475 45.0315 52.1369 45.3408C51.9815 45.4956 51.778 45.5729 51.5745 45.5729Z" fill="#D4EBFF"/>
<path id="Vector_11" d="M118.163 97.6212C117.96 97.6212 117.756 97.5439 117.601 97.3891L116.891 96.6819L116.181 97.3891C115.87 97.6985 115.367 97.6985 115.056 97.3891C114.746 97.0799 114.746 96.5783 115.056 96.269L116.329 95.0016C116.639 94.6922 117.143 94.6922 117.453 95.0016L118.726 96.269C119.036 96.5783 119.036 97.0799 118.726 97.3891C118.57 97.5438 118.367 97.6212 118.163 97.6212Z" fill="#D4EBFF"/>
</g>
<g id="Group_6">
<g id="Group_7">
<path id="Vector_12" d="M100.007 69.9234H63.9779C63.5386 69.9234 63.1826 69.5687 63.1826 69.1312C63.1826 68.6937 63.5386 68.3389 63.9779 68.3389H100.007C100.446 68.3389 100.802 68.6937 100.802 69.1312C100.802 69.5687 100.446 69.9234 100.007 69.9234Z" fill="#5A5A5A"/>
</g>
<g id="Group_8">
<path id="Vector_13" d="M100.007 53.9151H63.9779C63.5386 53.9151 63.1826 53.5604 63.1826 53.1229C63.1826 52.6854 63.5386 52.3306 63.9779 52.3306H100.007C100.446 52.3306 100.802 52.6854 100.802 53.1229C100.802 53.5604 100.446 53.9151 100.007 53.9151Z" fill="#5A5A5A"/>
</g>
<g id="Group_9">
<path id="Vector_14" d="M66.6054 65.1649H63.9779C63.5386 65.1649 63.1826 64.8101 63.1826 64.3726C63.1826 63.9351 63.5386 63.5803 63.9779 63.5803H66.6054C67.0448 63.5803 67.4007 63.9351 67.4007 64.3726C67.4007 64.8101 67.0448 65.1649 66.6054 65.1649Z" fill="#5A5A5A"/>
</g>
<g id="Group_10">
<path id="Vector_15" d="M83.4693 71.429H64.012C63.5967 71.429 63.2258 71.7315 63.1864 72.1433C63.141 72.6158 63.5129 73.0135 63.9778 73.0135H83.4693C83.9085 73.0135 84.2646 72.6587 84.2646 72.2212C84.2646 71.7836 83.9085 71.429 83.4693 71.429Z" fill="#5A5A5A"/>
<path id="Vector_16" d="M95.2013 71.429H87.5257C87.0866 71.429 86.7305 71.7837 86.7305 72.2212C86.7305 72.6587 87.0866 73.0135 87.5257 73.0135H95.2355C95.7006 73.0135 96.0723 72.6158 96.027 72.1433C95.9877 71.7315 95.6168 71.429 95.2013 71.429Z" fill="#5A5A5A"/>
</g>
<g id="Group_11">
<path id="Vector_17" d="M83.4693 55.4202H64.012C63.5967 55.4202 63.2258 55.7227 63.1864 56.1345C63.141 56.607 63.5129 57.0047 63.9778 57.0047H83.4693C83.9085 57.0047 84.2646 56.65 84.2646 56.2125C84.2646 55.7748 83.9085 55.4202 83.4693 55.4202Z" fill="#5A5A5A"/>
<path id="Vector_18" d="M95.2013 55.4202H87.5257C87.0866 55.4202 86.7305 55.775 86.7305 56.2125C86.7305 56.65 87.0866 57.0047 87.5257 57.0047H95.2355C95.7006 57.0047 96.0723 56.607 96.027 56.1345C95.9877 55.7227 95.6168 55.4202 95.2013 55.4202Z" fill="#5A5A5A"/>
</g>
<g id="Group_12">
<path id="Vector_19" d="M100.007 76.1034H63.9779C63.5386 76.1034 63.1826 75.7486 63.1826 75.3111C63.1826 74.8736 63.5386 74.5188 63.9779 74.5188H100.007C100.446 74.5188 100.802 74.8736 100.802 75.3111C100.802 75.7486 100.446 76.1034 100.007 76.1034Z" fill="#5A5A5A"/>
</g>
<g id="Group_13">
<path id="Vector_20" d="M100.007 60.0946H63.9779C63.5386 60.0946 63.1826 59.7398 63.1826 59.3023C63.1826 58.8648 63.5386 58.51 63.9779 58.51H100.007C100.446 58.51 100.802 58.8648 100.802 59.3023C100.802 59.7398 100.446 60.0946 100.007 60.0946Z" fill="#5A5A5A"/>
</g>
</g>
<g id="Group_14">
<g id="Group_15">
<path id="Vector_21" d="M100.007 86.3739H63.9779C63.5386 86.3739 63.1826 86.0191 63.1826 85.5816C63.1826 85.1441 63.5386 84.7893 63.9779 84.7893H100.007C100.446 84.7893 100.802 85.1441 100.802 85.5816C100.802 86.0191 100.446 86.3739 100.007 86.3739Z" fill="#5A5A5A"/>
</g>
<g id="Group_16">
<path id="Vector_22" d="M66.6054 81.6153H63.9779C63.5386 81.6153 63.1826 81.2606 63.1826 80.8231C63.1826 80.3855 63.5386 80.0308 63.9779 80.0308H66.6054C67.0448 80.0308 67.4007 80.3855 67.4007 80.8231C67.4007 81.2606 67.0448 81.6153 66.6054 81.6153Z" fill="#5A5A5A"/>
</g>
<g id="Group_17">
<path id="Vector_23" d="M83.4693 87.8792H64.012C63.5967 87.8792 63.2258 88.1816 63.1864 88.5935C63.141 89.066 63.5129 89.4637 63.9778 89.4637H83.4693C83.9085 89.4637 84.2646 89.1089 84.2646 88.6714C84.2646 88.2339 83.9085 87.8792 83.4693 87.8792Z" fill="#5A5A5A"/>
<path id="Vector_24" d="M95.2013 87.8792H87.5257C87.0866 87.8792 86.7305 88.2339 86.7305 88.6714C86.7305 89.1089 87.0866 89.4637 87.5257 89.4637H95.2355C95.7006 89.4637 96.0723 89.066 96.027 88.5935C95.9877 88.1816 95.6168 87.8792 95.2013 87.8792Z" fill="#5A5A5A"/>
</g>
<g id="Group_18">
<path id="Vector_25" d="M100.007 92.5538H63.9779C63.5386 92.5538 63.1826 92.199 63.1826 91.7615C63.1826 91.324 63.5386 90.9692 63.9779 90.9692H100.007C100.446 90.9692 100.802 91.324 100.802 91.7615C100.802 92.199 100.446 92.5538 100.007 92.5538Z" fill="#5A5A5A"/>
</g>
</g>
<g id="Group_19">
<path id="Vector_26" d="M113.13 42.0869C114.505 42.0869 115.619 43.197 115.619 44.5665V85.26C115.619 85.8631 115.475 86.4576 115.197 86.9937L113.837 89.6219C113.541 90.1941 112.719 90.1941 112.423 89.6219L111.063 86.9937C110.786 86.4576 110.641 85.8631 110.641 85.26V44.5665C110.641 43.197 111.755 42.0869 113.13 42.0869Z" fill="white"/>
<path id="Vector_27" d="M110.641 79.6716H115.619V81.9078H110.641V79.6716Z" fill="#D4EBFF"/>
<path id="Vector_28" d="M115.619 47.7139V44.5665C115.619 43.197 114.505 42.0869 113.13 42.0869C111.755 42.0869 110.641 43.197 110.641 44.5665V47.7139H115.619Z" fill="#D4EBFF"/>
<path id="Vector_29" fill-rule="evenodd" clip-rule="evenodd" d="M113.132 90.8432C112.534 90.8432 111.992 90.5143 111.718 89.9848L110.358 87.3567C110.024 86.7114 109.848 85.9862 109.848 85.26V64.5022L109.848 44.5665C109.848 42.7625 111.321 41.2949 113.132 41.2949C114.944 41.2949 116.417 42.7626 116.417 44.5665V85.2598C116.417 85.9861 116.24 86.711 115.906 87.3565L114.546 89.9847C114.272 90.5142 113.73 90.8432 113.132 90.8432ZM111.438 85.2598V64.5022L111.438 44.5665C111.438 43.636 112.198 42.8792 113.132 42.8792C114.066 42.8792 114.826 43.636 114.826 44.5665V85.2598C114.826 85.7347 114.711 86.2087 114.492 86.6306L113.132 89.2588L111.772 86.6306C111.554 86.2087 111.438 85.7347 111.438 85.2598Z" fill="#3A85F4"/>
</g>
<g id="Group_20">
<path id="Vector_30" d="M81.9589 98.5667C81.748 98.5667 81.5457 98.4833 81.3965 98.3346L79.8453 96.7897C79.5346 96.4804 79.5346 95.9788 79.8453 95.6696C80.1559 95.3601 80.6593 95.3601 80.9699 95.6696L81.9588 96.6542L82.9472 95.6697C83.2576 95.3603 83.7614 95.3605 84.0718 95.6696C84.3825 95.979 84.3825 96.4806 84.0718 96.7898L82.5212 98.3346C82.3721 98.4832 82.1698 98.5667 81.9589 98.5667Z" fill="#3A85F4"/>
</g>
</g>
</g>
</g>
</g>
<defs>
<filter id="filter0_d_73_12141" x="0" y="0" width="165" height="165" filterUnits="userSpaceOnUse" color-interpolation-filters="sRGB">
<feFlood flood-opacity="0" result="BackgroundImageFix"/>
<feColorMatrix in="SourceAlpha" type="matrix" values="0 0 0 0 0 0 0 0 0 0 0 0 0 0 0 0 0 0 127 0" result="hardAlpha"/>
<feOffset dy="8"/>
<feGaussianBlur stdDeviation="11.5"/>
<feColorMatrix type="matrix" values="0 0 0 0 0.170833 0 0 0 0 0.5025 0 0 0 0 1 0 0 0 0.2 0"/>
<feBlend mode="normal" in2="BackgroundImageFix" result="effect1_dropShadow_73_12141"/>
<feBlend mode="normal" in="SourceGraphic" in2="effect1_dropShadow_73_12141" result="shape"/>
</filter>
<linearGradient id="paint0_linear_73_12141" x1="42.6827" y1="74.2772" x2="122.762" y2="74.2772" gradientUnits="userSpaceOnUse">
<stop stop-color="#70BEFE" stop-opacity="0"/>
<stop offset="1" stop-color="#76C1FE"/>
</linearGradient>
</defs>
</svg>
