<svg width="165" height="165" viewBox="0 0 165 165" fill="none" xmlns="http://www.w3.org/2000/svg">
<g id="&#208;&#184;&#208;&#186;&#208;&#190;&#208;&#189;&#208;&#186;&#208;&#176; &#208;&#146;&#209;&#139;&#208;&#191;&#208;&#190;&#208;&#187;&#208;&#189;&#208;&#184;&#209;&#130;&#208;&#181; &#209;&#129;&#208;&#190;&#208;&#178;&#208;&#188;&#208;&#181;&#209;&#129;&#209;&#130;&#208;&#189;&#209;&#139;&#208;&#181; &#208;&#184;&#209;&#129;&#209;&#129;&#208;&#187;&#208;&#181;&#208;&#180;&#208;&#190;&#208;&#178;&#208;&#176;&#208;&#189;&#208;&#184;&#209;&#143;">
<g id="Rectangle 54" filter="url(#filter0_d_73_12093)">
<rect x="23" y="15" width="119" height="119" rx="14" fill="#FEFEFF"/>
</g>
<g id="Group 105">
<g id="Group">
<g id="Group_2">
<g id="Group_3">
<path id="Vector" d="M117.864 36.668C107.847 30.7159 94.8856 31.0463 85.0482 37.1445C79.5211 40.5707 75.2486 45.5122 70.4037 49.7661C66.1582 53.4936 61.2214 56.1525 56.8368 59.6695C40.9357 72.4245 42.4529 106.827 64.8434 111.396C74.5492 113.377 87.8144 114.013 93.5189 104.558C98.9581 95.5438 100.782 86.3223 111.41 81.5341C115.114 79.8653 121.304 79.9495 123.813 76.2928C126.979 71.6783 123.05 66.8847 120.955 62.8635C118.254 57.6811 117.688 52.5718 119.588 47.0128C121.206 42.2791 122.345 40.1526 117.864 36.668Z" fill="url(#paint0_linear_73_12093)"/>
</g>
<g id="Group_4">
<path id="Vector_2" opacity="0.1" d="M104.354 80.5289C97.8572 80.5289 92.3045 84.5577 90.0694 90.2468C90.0539 90.2412 90.0399 90.233 90.0237 90.2283L81.4389 87.7224C81.9533 86.1931 82.2325 84.5563 82.2325 82.8542C82.2325 78.9036 80.7305 75.3029 78.2651 72.5889L87.633 66.2353C87.6441 66.2276 87.6527 66.2179 87.6634 66.2098C90.4733 69.7263 94.8039 71.9806 99.6632 71.9806C108.133 71.9806 115 65.1327 115 56.6853C115 48.2378 108.133 41.3899 99.6632 41.3899C91.1931 41.3899 84.3267 48.2378 84.3267 56.6853C84.3267 59.7255 85.2163 62.5584 86.7497 64.9396H86.7495L77.2736 71.3665C77.2257 71.399 77.1833 71.4364 77.1451 71.4769C74.4288 69.0414 70.8362 67.5588 66.896 67.5588C58.4259 67.5588 51.5596 74.4068 51.5596 82.8542C51.5596 91.3016 58.4259 98.1496 66.896 98.1496C73.1048 98.1496 78.4518 94.4697 80.8642 89.1777C80.8923 89.1896 80.9192 89.2033 80.949 89.212L89.5739 91.7297C89.2116 93.033 89.0173 94.406 89.0173 95.8243C89.0173 104.272 95.8836 111.12 104.354 111.12C112.824 111.12 119.69 104.272 119.69 95.8243C119.69 87.3769 112.824 80.5289 104.354 80.5289Z" fill="#3A85F4"/>
<g id="Group_5">
<g id="Group_6">
<g id="Group_7">
<path id="Vector_3" d="M99.6685 68.2209C108.139 68.2209 115.005 61.3729 115.005 52.9255C115.005 44.4781 108.139 37.6301 99.6685 37.6301C91.1984 37.6301 84.332 44.4781 84.332 52.9255C84.332 61.3729 91.1984 68.2209 99.6685 68.2209Z" fill="#D4EBFF"/>
</g>
</g>
<g id="Group_8">
<g id="Group_9">
<path id="Vector_4" d="M66.8989 94.3898C75.369 94.3898 82.2354 87.5418 82.2354 79.0944C82.2354 70.647 75.369 63.7991 66.8989 63.7991C58.4289 63.7991 51.5625 70.647 51.5625 79.0944C51.5625 87.5418 58.4289 94.3898 66.8989 94.3898Z" fill="#D4EBFF"/>
</g>
</g>
<g id="Group_10">
<g id="Group_11">
<path id="Vector_5" d="M104.36 107.36C112.83 107.36 119.696 100.512 119.696 92.0644C119.696 83.617 112.83 76.769 104.36 76.769C95.8898 76.769 89.0234 83.617 89.0234 92.0644C89.0234 100.512 95.8898 107.36 104.36 107.36Z" fill="#D4EBFF"/>
</g>
</g>
</g>
<g id="Group_12">
<path id="Vector_6" d="M69.7678 54.57C69.3339 54.57 68.9823 54.2191 68.9823 53.7865C68.9823 53.268 68.5593 52.8464 68.0395 52.8464C67.6055 52.8464 67.2539 52.4956 67.2539 52.0629C67.2539 51.6303 67.6055 51.2795 68.0395 51.2795C68.5593 51.2795 68.9823 50.8578 68.9823 50.3394C68.9823 49.9067 69.3339 49.5559 69.7678 49.5559C70.2018 49.5559 70.5534 49.9067 70.5534 50.3394C70.5534 50.8578 70.9762 51.2795 71.4959 51.2795C71.9298 51.2795 72.2814 51.6303 72.2814 52.0629C72.2814 52.4956 71.9298 52.8464 71.4959 52.8464C70.9762 52.8464 70.5534 53.268 70.5534 53.7865C70.5534 54.2191 70.2018 54.57 69.7678 54.57Z" fill="#81C2FF"/>
<path id="Vector_7" d="M116.693 70.7614C116.26 70.7614 115.908 70.4105 115.908 69.9779C115.908 69.4594 115.485 69.0378 114.965 69.0378C114.531 69.0378 114.18 68.687 114.18 68.2543C114.18 67.8217 114.531 67.4709 114.965 67.4709C115.485 67.4709 115.908 67.0492 115.908 66.5308C115.908 66.0981 116.26 65.7473 116.693 65.7473C117.127 65.7473 117.479 66.0981 117.479 66.5308C117.479 67.0492 117.902 67.4709 118.422 67.4709C118.856 67.4709 119.207 67.8217 119.207 68.2543C119.207 68.687 118.856 69.0378 118.422 69.0378C117.902 69.0378 117.479 69.4594 117.479 69.9779C117.479 70.4105 117.127 70.7614 116.693 70.7614Z" fill="#D4EBFF"/>
<path id="Vector_8" d="M74.9434 102.994C74.5095 102.994 74.1579 102.643 74.1579 102.21C74.1579 101.692 73.7351 101.27 73.2152 101.27C72.7813 101.27 72.4297 100.919 72.4297 100.487C72.4297 100.054 72.7813 99.7033 73.2152 99.7033C73.7351 99.7033 74.1579 99.2817 74.1579 98.7632C74.1579 98.3306 74.5095 97.9797 74.9434 97.9797C75.3774 97.9797 75.729 98.3306 75.729 98.7632C75.729 99.2817 76.1518 99.7033 76.6717 99.7033C77.1056 99.7033 77.4572 100.054 77.4572 100.487C77.4572 100.919 77.1056 101.27 76.6717 101.27C76.1518 101.27 75.729 101.692 75.729 102.21C75.729 102.643 75.3774 102.994 74.9434 102.994Z" fill="#81C2FF"/>
<path id="Vector_9" d="M75.584 59.114C75.3831 59.114 75.1818 59.0375 75.0286 58.8846L73.3004 57.161C72.9936 56.855 72.9936 56.3589 73.3004 56.0531L75.0286 54.3295C75.3352 54.0236 75.8329 54.0236 76.1394 54.3295L77.8676 56.0531C78.1745 56.3591 78.1745 56.8552 77.8676 57.161L76.1394 58.8846C75.9862 59.0374 75.7851 59.114 75.584 59.114ZM74.9667 56.607L75.584 57.2226L76.2013 56.607L75.584 55.9913L74.9667 56.607Z" fill="#D4EBFF"/>
<path id="Vector_10" d="M83.959 105.073C83.7581 105.073 83.5568 104.997 83.4036 104.844L81.6754 103.12C81.3686 102.814 81.3686 102.318 81.6754 102.013L83.4036 100.289C83.7102 99.9831 84.2079 99.9831 84.5144 100.289L86.2426 102.013C86.5495 102.319 86.5495 102.815 86.2426 103.12L84.5144 104.844C84.3612 104.997 84.1601 105.073 83.959 105.073ZM83.3419 102.566L83.9592 103.182L84.5765 102.566L83.9592 101.951L83.3419 102.566Z" fill="#9ED0FF"/>
<path id="Vector_11" d="M42.5098 89.0964C42.3089 89.0964 42.1076 89.0199 41.9544 88.867L40.2262 87.1434C39.9194 86.8374 39.9194 86.3413 40.2262 86.0355L41.9544 84.3119C42.261 84.0061 42.7587 84.0061 43.0652 84.3119L44.7934 86.0355C45.1002 86.3415 45.1002 86.8376 44.7934 87.1434L43.0652 88.867C42.912 89.0199 42.7109 89.0964 42.5098 89.0964ZM41.8927 86.5894L42.51 87.205L43.1273 86.5894L42.51 85.9738L41.8927 86.5894Z" fill="#81C2FF"/>
</g>
</g>
</g>
<path id="Vector 10" d="M77.7998 68.0371L86.9709 61.7974" stroke="#5A5A5A" stroke-width="3"/>
<path id="Vector_12" fill-rule="evenodd" clip-rule="evenodd" d="M66.8956 95.1727C73.4464 95.1727 79.0969 91.2554 81.6168 85.6466C81.7266 85.4234 81.9951 84.8179 82.1902 84.1814C82.7266 82.5818 83.0179 80.8712 83.0179 79.0939C83.0179 74.9859 81.4646 71.2336 78.9137 68.3884C78.7863 68.2441 78.1127 67.5722 77.7918 67.2543C74.9203 64.6235 71.0929 63.0149 66.8954 63.0149C58.0057 63.0149 50.7734 70.2278 50.7734 79.0937C50.7736 87.9598 58.0058 95.1727 66.8956 95.1727ZM86.1048 61.6161C86.3689 61.9898 86.9216 62.7678 87.0201 62.8903C89.9755 66.6117 94.5444 69.0034 99.6631 69.0034C103.5 69.0034 107.218 67.636 110.131 65.1529C113.011 62.6978 114.94 59.3037 115.562 55.5961C115.634 55.1693 115.345 54.7655 114.917 54.6941C114.49 54.6234 114.084 54.9108 114.013 55.3376C113.451 58.6828 111.71 61.7454 109.11 63.9619C106.481 66.2026 103.126 67.4367 99.6631 67.4367C91.6396 67.4367 85.112 60.9267 85.112 52.9248C85.112 44.9228 91.6396 38.4128 99.6631 38.4128C106.711 38.4128 112.733 43.4255 113.982 50.3317C114.059 50.7576 114.467 51.0401 114.895 50.9636C115.322 50.8869 115.605 50.4795 115.528 50.0536C114.144 42.4006 107.472 36.8459 99.6627 36.8459C90.773 36.8459 83.5406 44.0588 83.5406 52.9248C83.5406 56.1243 84.4829 59.1085 86.1048 61.6161ZM88.2314 92.0638C88.2314 90.5894 88.4311 89.1411 88.819 87.7489C88.8666 87.4732 89.1698 86.6423 89.3155 86.2613C89.7798 85.0661 90.3878 83.9229 91.1375 82.8546C91.3864 82.5 91.8762 82.4139 92.2316 82.662C92.587 82.91 92.6734 83.3984 92.4247 83.753C90.7094 86.1972 89.8027 89.071 89.8027 92.0638C89.8027 100.066 96.3303 106.576 104.354 106.576C112.377 106.576 118.904 100.066 118.904 92.0638C118.904 84.0619 112.377 77.5519 104.354 77.5519C101.328 77.5519 98.4271 78.4693 95.9649 80.2051C95.6109 80.4547 95.1205 80.371 94.8699 80.0176C94.6195 79.6642 94.7037 79.1753 95.058 78.9256C97.7869 77.0019 101.001 75.985 104.353 75.985C113.243 75.985 120.475 83.198 120.475 92.0638C120.475 100.93 113.243 108.143 104.353 108.143C95.4637 108.143 88.2314 100.93 88.2314 92.0638ZM66.8956 64.5818C74.9189 64.5818 81.4465 71.0918 81.4465 79.0937C81.4465 87.0957 74.9189 93.6056 66.8956 93.6056C58.8723 93.6056 52.3447 87.0957 52.3447 79.0937C52.3447 71.0919 58.8723 64.5818 66.8956 64.5818Z" fill="#3A85F4"/>
</g>
<ellipse id="Ellipse 40" cx="99.659" cy="52.661" rx="11.8426" ry="11.8109" fill="white"/>
<ellipse id="Ellipse 42" cx="66.5887" cy="78.9569" rx="11.8426" ry="11.8109" fill="white"/>
<ellipse id="Ellipse 43" cx="104.128" cy="91.8819" rx="11.8426" ry="11.8109" fill="white"/>
<g id="Group 102">
<ellipse id="Ellipse 39" cx="104.385" cy="91.7527" rx="4.11554" ry="4.10452" fill="#3A85F4"/>
<path id="Intersect" fill-rule="evenodd" clip-rule="evenodd" d="M97.6973 101.795C97.8744 99.8777 98.7352 97.5329 101.259 96.6038C102.198 97.3024 104.754 98.2806 107.469 96.6038C108.639 96.9908 110.675 98.4555 111.064 101.465C109.117 102.867 106.725 103.693 104.14 103.693C101.764 103.693 99.5515 102.996 97.6973 101.795Z" fill="#3A85F4"/>
</g>
<g id="Group 103">
<ellipse id="Ellipse 39_2" cx="66.807" cy="78.8277" rx="4.11554" ry="4.10452" fill="#3A85F4"/>
<path id="Intersect_2" fill-rule="evenodd" clip-rule="evenodd" d="M60.1104 88.8764C60.286 86.9582 61.1458 84.6088 63.6725 83.6785C64.6115 84.3772 67.168 85.3553 69.8824 83.6785C71.0522 84.0652 73.0849 85.5277 73.4767 88.5321C71.5275 89.9389 69.1317 90.7681 66.5417 90.7681C64.1706 90.7681 61.9623 90.0732 60.1104 88.8764Z" fill="#3A85F4"/>
</g>
<g id="Group 104">
<ellipse id="Ellipse 39_3" cx="99.8734" cy="52.5318" rx="4.11554" ry="4.10452" fill="#3A85F4"/>
<path id="Intersect_3" fill-rule="evenodd" clip-rule="evenodd" d="M93.1895 62.5734C93.3666 60.6566 94.2274 58.3117 96.7509 57.3826C97.6899 58.0813 100.246 59.0594 102.961 57.3826C104.132 57.7696 106.167 59.2344 106.556 62.2441C104.622 63.6364 102.25 64.4609 99.6854 64.4722H99.5783C97.2228 64.4618 95.0297 63.7656 93.1895 62.5734Z" fill="#3A85F4"/>
</g>
<path id="Vector 11" d="M81.8242 84.9736L88.9821 87.2021" stroke="#5A5A5A" stroke-width="3"/>
</g>
</g>
<defs>
<filter id="filter0_d_73_12093" x="0" y="0" width="165" height="165" filterUnits="userSpaceOnUse" color-interpolation-filters="sRGB">
<feFlood flood-opacity="0" result="BackgroundImageFix"/>
<feColorMatrix in="SourceAlpha" type="matrix" values="0 0 0 0 0 0 0 0 0 0 0 0 0 0 0 0 0 0 127 0" result="hardAlpha"/>
<feOffset dy="8"/>
<feGaussianBlur stdDeviation="11.5"/>
<feColorMatrix type="matrix" values="0 0 0 0 0.170833 0 0 0 0 0.5025 0 0 0 0 1 0 0 0 0.2 0"/>
<feBlend mode="normal" in2="BackgroundImageFix" result="effect1_dropShadow_73_12093"/>
<feBlend mode="normal" in="SourceGraphic" in2="effect1_dropShadow_73_12093" result="shape"/>
</filter>
<linearGradient id="paint0_linear_73_12093" x1="46.2576" y1="72.4947" x2="125.001" y2="72.4947" gradientUnits="userSpaceOnUse">
<stop stop-color="#6EBDFE" stop-opacity="0"/>
<stop offset="1" stop-color="#6EBDFE"/>
</linearGradient>
</defs>
</svg>
