<svg width="165" height="165" viewBox="0 0 165 165" fill="none" xmlns="http://www.w3.org/2000/svg">
<g filter="url(#filter0_d_73_12031)">
<rect x="23" y="15" width="119" height="119" rx="14" fill="#FEFEFF"/>
</g>
<path d="M94.2287 47.7884C94.0314 47.7884 93.8346 47.7901 93.6382 47.7937C88.7462 47.8819 84.0319 46.1145 80.2292 43.0548C76.8572 40.3417 72.5541 38.7264 67.8703 38.7568C57.1821 38.8261 48.3734 47.7938 48.5503 58.4144C48.5979 61.2742 49.2706 63.9827 50.4384 66.4111C52.4281 70.5488 51.999 75.4712 49.2343 79.1429C48.0924 80.6593 47.1579 82.3687 46.4862 84.2442C42.907 94.2388 48.1943 105.348 58.2435 108.927C68.4771 112.571 79.6996 107.184 83.2126 96.9982C83.4728 96.2437 83.6833 95.4842 83.8459 94.7232C84.8785 89.8906 89.1206 86.4309 94.0918 86.4516C94.1375 86.4517 94.1832 86.4519 94.2289 86.4519C108.01 86.4519 119.182 77.7968 119.182 67.1202C119.182 56.4436 108.01 47.7884 94.2287 47.7884Z" fill="url(#paint0_linear_73_12031)"/>
<path d="M73.8772 47.8357H73.4447V47.4058C73.4447 47.0103 73.1219 46.6895 72.7238 46.6895C72.3258 46.6895 72.003 47.0103 72.003 47.4058V47.8357H71.5705C71.1724 47.8357 70.8496 48.1565 70.8496 48.5521C70.8496 48.9476 71.1724 49.2684 71.5705 49.2684H72.003V49.6983C72.003 50.0939 72.3258 50.4147 72.7238 50.4147C73.1219 50.4147 73.4447 50.0939 73.4447 49.6983V49.2684H73.8772C74.2753 49.2684 74.5981 48.9476 74.5981 48.5521C74.5981 48.1565 74.2754 47.8357 73.8772 47.8357Z" fill="#C4E2FF"/>
<path d="M92.4094 96.0786H91.9769V95.6488C91.9769 95.2532 91.6541 94.9324 91.2561 94.9324C90.858 94.9324 90.5352 95.2532 90.5352 95.6488V96.0786H90.1027C89.7046 96.0786 89.3818 96.3994 89.3818 96.795C89.3818 97.1906 89.7046 97.5114 90.1027 97.5114H90.5352V97.9412C90.5352 98.3368 90.858 98.6576 91.2561 98.6576C91.6541 98.6576 91.9769 98.3368 91.9769 97.9412V97.5114H92.4094C92.8075 97.5114 93.1303 97.1906 93.1303 96.795C93.1303 96.3994 92.8075 96.0786 92.4094 96.0786Z" fill="#81C2FF"/>
<path d="M59.1321 96.0786H58.6996V95.6488C58.6996 95.2532 58.3768 94.9324 57.9787 94.9324C57.5807 94.9324 57.2579 95.2532 57.2579 95.6488V96.0786H56.8253C56.4273 96.0786 56.1045 96.3994 56.1045 96.795C56.1045 97.1906 56.4273 97.5114 56.8253 97.5114H57.2579V97.9412C57.2579 98.3368 57.5807 98.6576 57.9787 98.6576C58.3768 98.6576 58.6996 98.3368 58.6996 97.9412V97.5114H59.1321C59.5301 97.5114 59.8529 97.1906 59.8529 96.795C59.8529 96.3994 59.5301 96.0786 59.1321 96.0786Z" fill="#81C2FF"/>
<path d="M98.425 100.713C98.2405 100.713 98.0561 100.643 97.9152 100.503L97.2717 99.8633L96.6281 100.503C96.3465 100.783 95.8902 100.783 95.6086 100.503C95.3271 100.223 95.3271 99.7694 95.6086 99.4898L96.762 98.3435C97.0436 98.0639 97.4999 98.0639 97.7814 98.3435L98.9348 99.4898C99.2164 99.7696 99.2164 100.223 98.9348 100.503C98.7941 100.643 98.6096 100.713 98.425 100.713Z" fill="#81C2FF"/>
<path d="M67.1242 46.769C66.9397 46.769 66.7553 46.6991 66.6145 46.5593L65.9709 45.9197L65.3273 46.5593C65.0457 46.839 64.5894 46.839 64.3079 46.5593C64.0263 46.2795 64.0263 45.8258 64.3079 45.5462L65.4612 44.3999C65.7428 44.1203 66.1991 44.1203 66.4807 44.3999L67.634 45.5462C67.9156 45.826 67.9156 46.2796 67.634 46.5593C67.4933 46.6991 67.3088 46.769 67.1242 46.769Z" fill="#BCDFFF"/>
<path d="M76.2373 87.9517H87.3904V102.145H76.2373V87.9517Z" fill="white"/>
<path opacity="0.1" d="M110.105 45.6667C106.943 45.6667 104.332 48.0046 103.922 51.0356H85.9991C85.2033 51.0356 84.5574 51.6775 84.5574 52.4684V58.667H80.6733C80.5027 58.0647 79.9469 57.6221 79.2865 57.6221H60.2987C59.4201 55.2549 57.1301 53.5668 54.4429 53.5668C50.9967 53.5668 48.2031 56.343 48.2031 59.7678C48.2031 62.3492 49.7906 64.5614 52.048 65.4949V79.7413C52.048 80.5322 52.6925 81.1741 53.4897 81.1741H53.5454V90.8965C53.5454 92.0834 54.5137 93.0456 55.708 93.0456H71.7803V94.6473C71.7803 95.4386 72.4258 96.0801 73.2221 96.0801H76.2329V104.104H70.5594C69.7475 104.104 69.0894 104.758 69.0894 105.564C69.0894 106.371 69.7475 107.025 70.5594 107.025H93.0595C93.8713 107.025 94.5295 106.371 94.5295 105.564C94.5295 104.758 93.8713 104.104 93.0595 104.104H87.3861V96.0801H90.3968C91.193 96.0801 91.8385 95.4386 91.8385 94.6473V93.0456H107.911C109.105 93.0456 110.073 92.0834 110.073 90.8965V68.901H110.978C111.774 68.901 112.42 68.2591 112.42 67.4682V57.6261C114.719 56.7121 116.344 54.4793 116.344 51.8679C116.344 48.443 113.551 45.6667 110.105 45.6667Z" fill="#3A85F4"/>
<path d="M90.3964 92.2114H73.222C72.4257 92.2114 71.7803 91.57 71.7803 90.7786V87.5337H91.8381V90.7786C91.8381 91.57 91.1927 92.2114 90.3964 92.2114Z" fill="white"/>
<path d="M107.911 89.1776H55.7085C54.5142 89.1776 53.5459 88.2153 53.5459 87.0284V56.9482C53.5459 55.7613 54.5142 54.7991 55.7085 54.7991H107.911C109.106 54.7991 110.074 55.7613 110.074 56.9482V87.0284C110.074 88.2153 109.106 89.1776 107.911 89.1776Z" fill="#81C2FF"/>
<path d="M110.077 56.9473V83.389H53.5498V56.9473C53.5498 55.7609 54.5172 54.7981 55.7124 54.7981H107.914C109.109 54.7981 110.077 55.7609 110.077 56.9473Z" fill="white"/>
<path d="M93.0629 103.157H70.5627C69.7509 103.157 69.0928 102.503 69.0928 101.696C69.0928 100.889 69.7509 100.235 70.5627 100.235H93.0629C93.8747 100.235 94.5328 100.889 94.5328 101.696C94.533 102.503 93.8748 103.157 93.0629 103.157Z" fill="white"/>
<path d="M80.7298 55.1864V75.8728C80.7298 76.6637 80.084 77.3056 79.2881 77.3056H72.5481L71.3356 80.8502C70.9521 81.9721 69.3576 81.9721 68.9741 80.8502L67.7602 77.3056H53.4915C52.6943 77.3056 52.0498 76.6637 52.0498 75.8728V55.1864C52.0498 54.3955 52.6943 53.7537 53.4915 53.7537H79.2881C80.084 53.7537 80.7298 54.3955 80.7298 55.1864Z" fill="white"/>
<path d="M57.2003 73.3495H76.6125C77.0107 73.3495 77.3333 73.0287 77.3333 72.6331C77.3333 72.2375 77.0107 71.9167 76.6125 71.9167H57.2003C56.8021 71.9167 56.4795 72.2375 56.4795 72.6331C56.4795 73.0287 56.8021 73.3495 57.2003 73.3495Z" fill="#5A5A5A"/>
<path d="M57.2003 65.8395H76.6125C77.0107 65.8395 77.3333 65.5187 77.3333 65.1231C77.3333 64.7275 77.0107 64.4067 76.6125 64.4067H57.2003C56.8021 64.4067 56.4795 64.7275 56.4795 65.1231C56.4795 65.5187 56.8021 65.8395 57.2003 65.8395Z" fill="#5A5A5A"/>
<path d="M57.2003 68.3473H76.6125C77.0107 68.3473 77.3333 68.0265 77.3333 67.6309C77.3333 67.2353 77.0107 66.9146 76.6125 66.9146H57.2003C56.8021 66.9146 56.4795 67.2353 56.4795 67.6309C56.4795 68.0265 56.8021 68.3473 57.2003 68.3473Z" fill="#5A5A5A"/>
<path d="M69.4738 60.8241H76.6132C77.0114 60.8241 77.334 60.5033 77.334 60.1077C77.334 59.7122 77.0114 59.3914 76.6132 59.3914H69.4738C69.0756 59.3914 68.7529 59.7122 68.7529 60.1077C68.7529 60.5033 69.0756 60.8241 69.4738 60.8241Z" fill="#5A5A5A"/>
<path d="M77.3329 62.6153C77.3329 63.0108 77.01 63.3317 76.6121 63.3317H57.1994C56.8015 63.3317 56.4785 63.0108 56.4785 62.6153C56.4785 62.2199 56.8015 61.8989 57.1994 61.8989H76.6121C77.01 61.8989 77.3329 62.2199 77.3329 62.6153Z" fill="#5A5A5A"/>
<path d="M112.419 48.6003V63.5999C112.419 64.3908 111.773 65.0327 110.978 65.0327H96.0659L94.8519 68.5774C94.4684 69.6978 92.8739 69.6978 92.4904 68.5774L91.2779 65.0327H85.9984C85.2025 65.0327 84.5566 64.3908 84.5566 63.5999V48.6003C84.5566 47.8094 85.2025 47.1675 85.9984 47.1675H110.978C111.773 47.1675 112.419 47.8094 112.419 48.6003Z" fill="white"/>
<path d="M54.4429 62.1003C57.889 62.1003 60.6826 59.324 60.6826 55.8993C60.6826 52.4745 57.889 49.6982 54.4429 49.6982C50.9968 49.6982 48.2031 52.4745 48.2031 55.8993C48.2031 59.324 50.9968 62.1003 54.4429 62.1003Z" fill="#D4EBFF"/>
<path d="M105.742 73.9699C106.14 73.9699 106.463 73.6491 106.463 73.2535C106.463 72.8578 106.14 72.5371 105.742 72.5371C105.344 72.5371 105.021 72.8578 105.021 73.2535C105.021 73.6491 105.344 73.9699 105.742 73.9699Z" fill="#5A5A5A"/>
<path d="M103.401 73.9699C103.799 73.9699 104.121 73.6491 104.121 73.2535C104.121 72.8578 103.799 72.5371 103.401 72.5371C103.002 72.5371 102.68 72.8578 102.68 73.2535C102.68 73.6491 103.002 73.9699 103.401 73.9699Z" fill="#5A5A5A"/>
<path d="M98.8283 76.5561H105.968C106.366 76.5561 106.689 76.2353 106.689 75.8397C106.689 75.4441 106.366 75.1233 105.968 75.1233H98.8283C98.4301 75.1233 98.1074 75.4441 98.1074 75.8397C98.1074 76.2353 98.4301 76.5561 98.8283 76.5561Z" fill="#5A5A5A"/>
<path d="M94.9357 79.0639H105.968C106.366 79.0639 106.689 78.7431 106.689 78.3475C106.689 77.9519 106.366 77.6311 105.968 77.6311H94.9357C94.5375 77.6311 94.2148 77.9519 94.2148 78.3475C94.2148 78.7431 94.5375 79.0639 94.9357 79.0639Z" fill="#5A5A5A"/>
<path d="M110.106 54.2004C113.552 54.2004 116.346 51.4241 116.346 47.9994C116.346 44.5746 113.552 41.7983 110.106 41.7983C106.66 41.7983 103.866 44.5746 103.866 47.9994C103.866 51.4241 106.66 54.2004 110.106 54.2004Z" fill="#D5EBFF"/>
<path d="M117.066 47.9992C117.066 44.1849 113.944 41.0818 110.106 41.0818C106.803 41.0818 104.033 43.3797 103.323 46.4504H86.0004C84.808 46.4504 83.8378 47.4145 83.8378 48.5995V54.082H81.1385C80.7598 53.4576 80.0726 53.0377 79.287 53.0377H60.7786C59.6812 50.6478 57.2555 48.9818 54.444 48.9818C50.6059 48.9818 47.4834 52.0849 47.4834 55.8992C47.4834 58.6007 49.0505 60.9437 51.328 62.0821V75.8729C51.328 76.8274 51.9578 77.6375 52.8257 77.917V87.0277C52.8257 88.6078 54.1192 89.8933 55.7091 89.8933H71.0606V90.7786C71.0606 91.9636 72.0308 92.9277 73.2232 92.9277H75.5132V99.5185H70.5605C69.3525 99.5185 68.3697 100.495 68.3697 101.696C68.3697 102.896 69.3525 103.873 70.5605 103.873H93.0606C94.2686 103.873 95.2516 102.896 95.2516 101.696C95.2516 100.495 94.2688 99.5185 93.0606 99.5185H88.1079V92.9277H90.3978C91.5902 92.9277 92.5603 91.9636 92.5603 90.7786V89.8933H107.912C109.502 89.8933 110.795 88.6078 110.795 87.0277V65.7489H110.979C112.172 65.7489 113.142 64.7848 113.142 63.5998V54.2226C115.463 53.0996 117.066 50.7322 117.066 47.9992ZM48.9253 55.8992C48.9253 52.8751 51.401 50.4146 54.4441 50.4146C57.4873 50.4146 59.963 52.8749 59.963 55.8992C59.963 58.9235 57.4873 61.3839 54.4441 61.3839C51.401 61.3839 48.9253 58.9235 48.9253 55.8992ZM52.7697 62.613C53.3063 62.7453 53.8669 62.8166 54.444 62.8166C58.2821 62.8166 61.4046 59.7135 61.4046 55.8992C61.4046 55.4095 61.3523 54.9317 61.2545 54.4705H79.287C79.6845 54.4705 80.0079 54.7918 80.0079 55.1868V75.8729C80.0079 76.2679 79.6845 76.5893 79.287 76.5893H72.548C72.2394 76.5893 71.965 76.7846 71.8655 77.075L70.6526 80.6198C70.54 80.9491 70.2426 80.9747 70.1541 80.9747C70.0657 80.9747 69.7683 80.9491 69.6555 80.6198L68.4426 77.075C68.3433 76.7846 68.0688 76.5893 67.7601 76.5893H53.4907C53.0933 76.5893 52.7699 76.2679 52.7699 75.8729L52.7697 62.613ZM87.387 100.951H93.0606C93.4738 100.951 93.8099 101.285 93.8099 101.696C93.8099 102.106 93.4738 102.44 93.0606 102.44H70.5605C70.1474 102.44 69.8114 102.106 69.8114 101.696C69.8114 101.285 70.1474 100.951 70.5605 100.951H82.9754C83.3734 100.951 83.6962 100.631 83.6962 100.235C83.6962 99.8394 83.3734 99.5186 82.9754 99.5186H76.9549V92.9279H86.6663V100.235C86.6662 100.631 86.989 100.951 87.387 100.951ZM91.1186 90.7787C91.1186 91.1738 90.7952 91.4951 90.3978 91.4951H73.2233C72.8259 91.4951 72.5025 91.1738 72.5025 90.7787V89.8934H91.1186V90.7787ZM111.7 63.5998C111.7 63.9948 111.377 64.3162 110.98 64.3162H96.0672C95.7585 64.3162 95.4841 64.5115 95.3847 64.8019L94.1717 68.3467C94.0591 68.676 93.7617 68.7016 93.6732 68.7016C93.5847 68.7016 93.2873 68.676 93.1747 68.3467L91.9617 64.8019C91.8624 64.5115 91.5879 64.3162 91.2792 64.3162H86.0004C85.6029 64.3162 85.2795 63.9948 85.2795 63.5998V54.939C85.2795 54.5434 84.9567 54.2226 84.5587 54.2226C84.1606 54.2226 83.8378 54.5434 83.8378 54.939V63.5998C83.8378 64.7848 84.808 65.7489 86.0004 65.7489H90.763L91.8096 68.8081C92.0854 69.6138 92.8168 70.1344 93.6732 70.1344C94.5294 70.1344 95.261 69.6138 95.5366 68.8081L96.5833 65.7489H109.354V87.0279C109.354 87.8179 108.707 88.4607 107.912 88.4607H55.7091C54.9141 88.4607 54.2674 87.8179 54.2674 87.0279V78.0222H67.244L68.2907 81.0813C68.5665 81.8871 69.2978 82.4076 70.1541 82.4076C71.0105 82.4076 71.7418 81.8871 72.0176 81.0813L73.0643 78.0222H79.287C80.4795 78.0222 81.4496 77.0581 81.4496 75.8731V55.5148H84.5584C84.8315 55.5148 85.0812 55.3611 85.2034 55.1184C85.2534 55.0189 85.2795 54.9093 85.2795 54.798V48.5997C85.2795 48.2047 85.6029 47.8833 86.0004 47.8833H103.148C103.147 47.922 103.145 47.9604 103.145 47.9993C103.145 51.8137 106.267 54.9168 110.106 54.9168C110.654 54.9168 111.188 54.8513 111.7 54.7314V63.5998ZM110.106 53.4839C107.063 53.4839 104.587 51.0235 104.587 47.9992C104.587 44.9749 107.063 42.5146 110.106 42.5146C113.149 42.5146 115.625 44.9749 115.625 47.9992C115.625 51.0235 113.149 53.4839 110.106 53.4839Z" fill="#3A85F4"/>
<path d="M108.186 58.1471H88.7736C88.3754 58.1471 88.0527 57.8263 88.0527 57.4307C88.0527 57.0352 88.3754 56.7144 88.7736 56.7144H108.186C108.584 56.7144 108.907 57.0352 108.907 57.4307C108.907 57.8263 108.584 58.1471 108.186 58.1471Z" fill="#5A5A5A"/>
<path d="M108.186 60.6549H88.7736C88.3754 60.6549 88.0527 60.3341 88.0527 59.9386C88.0527 59.543 88.3754 59.2222 88.7736 59.2222H108.186C108.584 59.2222 108.907 59.543 108.907 59.9386C108.907 60.3341 108.584 60.6549 108.186 60.6549Z" fill="#5A5A5A"/>
<path d="M108.907 54.9229C108.907 55.3184 108.584 55.6393 108.186 55.6393H88.7736C88.3757 55.6393 88.0527 55.3184 88.0527 54.9229C88.0527 54.5275 88.3757 54.2065 88.7736 54.2065H108.186C108.584 54.2065 108.907 54.5275 108.907 54.9229Z" fill="#5A5A5A"/>
<path d="M95.913 53.1315H88.7736C88.3754 53.1315 88.0527 52.8107 88.0527 52.4151C88.0527 52.0195 88.3754 51.6987 88.7736 51.6987H95.913C96.3112 51.6987 96.6338 52.0195 96.6338 52.4151C96.6338 52.8107 96.3112 53.1315 95.913 53.1315Z" fill="#5A5A5A"/>
<path d="M108.675 98.8033L110.244 97.24L115.006 101.984L113.437 103.548L108.675 98.8033Z" fill="white"/>
<path d="M110.194 98.7501C106.622 102.309 100.809 102.309 97.2369 98.7501C93.6645 95.1911 93.6646 89.4001 97.2369 85.8411C100.809 82.2821 106.622 82.2821 110.194 85.8411C113.767 89.4001 113.767 95.191 110.194 98.7501Z" fill="#81C2FF"/>
<path d="M103.711 99.1607C107.517 99.1607 110.602 96.0871 110.602 92.2957C110.602 88.5042 107.517 85.4307 103.711 85.4307C99.9054 85.4307 96.8203 88.5042 96.8203 92.2957C96.8203 96.0871 99.9054 99.1607 103.711 99.1607Z" fill="white" fill-opacity="0.86"/>
<path d="M107.981 86.9016L98.302 96.544C97.9192 96.0611 97.6118 95.5382 97.3789 94.9914L106.422 85.9819C106.971 86.214 107.496 86.5202 107.981 86.9016Z" fill="white"/>
<path d="M110.545 91.3851L102.802 99.0987C101.411 98.9152 100.065 98.3087 98.9766 97.2799L108.719 87.5735C109.752 88.6578 110.361 89.9988 110.545 91.3851Z" fill="white"/>
<path d="M122.503 109.519L121.005 111.012C120.709 111.307 120.23 111.307 119.935 111.012L112.835 103.939C112.539 103.645 112.539 103.167 112.835 102.873L114.333 101.38C114.629 101.086 115.108 101.086 115.404 101.38L122.503 108.453C122.799 108.748 122.799 109.225 122.503 109.519Z" fill="white"/>
<path d="M118.747 109.833L119.931 111.012C120.226 111.307 120.706 111.307 121.001 111.012L122.5 109.52C122.795 109.225 122.795 108.748 122.5 108.453L121.316 107.274L118.747 109.833Z" fill="#81C2FF"/>
<path d="M113.871 104.977L116.439 102.418L118.135 104.107L115.566 106.666L113.871 104.977Z" fill="#81C2FF"/>
<path d="M103.185 94.7918C102.948 94.7918 102.757 94.6008 102.757 94.3653V93.8521C102.757 93.521 102.844 93.1941 103.009 92.9065C103.261 92.4664 103.687 92.1401 104.176 92.0111C104.923 91.8143 105.446 91.1381 105.446 90.3666C105.446 89.9034 105.262 89.4704 104.929 89.1473C104.595 88.8244 104.156 88.654 103.69 88.6665C102.795 88.6912 102.051 89.4364 102.032 90.3277C102.027 90.5139 102.053 90.6971 102.108 90.8724C102.178 91.0974 102.052 91.3364 101.826 91.4064C101.6 91.4763 101.36 91.3508 101.29 91.1257C101.208 90.8622 101.169 90.5873 101.175 90.3088C101.206 88.9474 102.3 87.8514 103.666 87.8137C104.366 87.7949 105.025 88.0509 105.526 88.5358C106.026 89.0208 106.302 89.671 106.302 90.3666C106.302 91.5248 105.518 92.5402 104.395 92.8358C104.126 92.9067 103.891 93.0867 103.752 93.3297C103.661 93.4885 103.613 93.6691 103.613 93.852V94.3652C103.613 94.6008 103.421 94.7918 103.185 94.7918Z" fill="#5A5A5A"/>
<path d="M103.19 96.4299C102.953 96.4299 102.762 96.2388 102.762 96.0031V95.994C102.762 95.7583 102.953 95.5671 103.19 95.5671C103.426 95.5671 103.618 95.7583 103.618 95.994V96.0031C103.618 96.2389 103.426 96.4299 103.19 96.4299Z" fill="#5A5A5A"/>
<path fill-rule="evenodd" clip-rule="evenodd" d="M122.805 108.152L115.93 101.302C115.493 100.867 115.177 100.754 115.073 100.751C115.006 100.74 114.937 100.733 114.867 100.733C114.719 100.733 114.574 100.761 114.44 100.813L111.497 97.8807C114.199 94.1486 113.866 88.8959 110.497 85.5394C106.757 81.814 100.673 81.814 96.9337 85.5394C95.125 87.3412 94.1289 89.7406 94.1289 92.2954C94.1289 94.8503 95.125 97.2497 96.9337 99.0515C98.8033 100.914 101.259 101.845 103.715 101.845C105.685 101.845 107.654 101.246 109.321 100.048L112.264 102.98C112.212 103.114 112.184 103.258 112.184 103.406C112.184 103.721 112.307 104.018 112.531 104.241L115.073 106.774L119.631 111.314C119.855 111.537 120.152 111.66 120.469 111.66C120.785 111.66 121.083 111.537 121.306 111.314L122.805 109.821C123.267 109.361 123.267 108.612 122.805 108.152ZM94.9851 92.2954C94.9851 94.6225 95.8922 96.8076 97.539 98.4483C100.945 101.841 106.486 101.841 109.891 98.4484C113.296 95.0557 113.296 89.5354 109.891 86.1427C108.188 84.4463 105.952 83.5981 103.715 83.5981C101.478 83.5981 99.2417 84.4462 97.539 86.1426C95.8922 87.7833 94.9851 89.9684 94.9851 92.2954ZM110.961 98.5539C110.813 98.7239 110.659 98.89 110.496 99.0515C110.334 99.213 110.168 99.3671 109.997 99.5147L112.798 102.305L113.762 101.345L110.961 98.5539ZM120.701 110.711L122.199 109.218C122.328 109.09 122.328 108.882 122.199 108.755L115.1 101.682C115.038 101.62 114.955 101.586 114.867 101.586C114.78 101.586 114.697 101.62 114.635 101.682L113.137 103.175C113.074 103.237 113.04 103.319 113.04 103.406C113.04 103.494 113.074 103.576 113.137 103.638L120.236 110.711C120.36 110.834 120.577 110.834 120.701 110.711Z" fill="#3A85F4"/>
<ellipse cx="110.249" cy="47.5078" rx="2.20657" ry="2.20066" fill="#3A85F4"/>
<path fill-rule="evenodd" clip-rule="evenodd" d="M106.654 52.8912C106.749 51.8636 107.211 50.6067 108.564 50.1086C109.067 50.4832 110.438 51.0077 111.893 50.1086C112.521 50.3162 113.612 51.1017 113.821 52.7157C112.78 53.4648 111.503 53.9071 110.122 53.9098H110.096C108.827 53.9073 107.645 53.5334 106.654 52.8912Z" fill="#3A85F4"/>
<ellipse cx="54.3306" cy="55.0844" rx="2.20657" ry="2.20066" fill="#3A85F4"/>
<path fill-rule="evenodd" clip-rule="evenodd" d="M50.7373 60.4677C50.8324 59.4401 51.294 58.1834 52.6468 57.6853C53.1502 58.0599 54.5209 58.5844 55.9762 57.6853C56.604 57.8928 57.6953 58.6783 57.9039 60.2921C56.86 61.0435 55.5779 61.4863 54.1922 61.4863C52.9181 61.4863 51.7316 61.112 50.7373 60.4677Z" fill="#3A85F4"/>
<defs>
<filter id="filter0_d_73_12031" x="0" y="0" width="165" height="165" filterUnits="userSpaceOnUse" color-interpolation-filters="sRGB">
<feFlood flood-opacity="0" result="BackgroundImageFix"/>
<feColorMatrix in="SourceAlpha" type="matrix" values="0 0 0 0 0 0 0 0 0 0 0 0 0 0 0 0 0 0 127 0" result="hardAlpha"/>
<feOffset dy="8"/>
<feGaussianBlur stdDeviation="11.5"/>
<feColorMatrix type="matrix" values="0 0 0 0 0.170833 0 0 0 0 0.5025 0 0 0 0 1 0 0 0 0.2 0"/>
<feBlend mode="normal" in2="BackgroundImageFix" result="effect1_dropShadow_73_12031"/>
<feBlend mode="normal" in="SourceGraphic" in2="effect1_dropShadow_73_12031" result="shape"/>
</filter>
<linearGradient id="paint0_linear_73_12031" x1="101.477" y1="101.492" x2="48.5718" y2="40.3205" gradientUnits="userSpaceOnUse">
<stop stop-color="#5EB6FE" stop-opacity="0"/>
<stop offset="1" stop-color="#5FB6FE"/>
</linearGradient>
</defs>
</svg>
