<svg width="165" height="165" viewBox="0 0 165 165" fill="none" xmlns="http://www.w3.org/2000/svg">
<g id="&#208;&#184;&#208;&#186;&#208;&#190;&#208;&#189;&#208;&#186;&#208;&#176;  &#208;&#159;&#209;&#128;&#208;&#190;&#208;&#180;&#208;&#178;&#208;&#184;&#208;&#189;&#209;&#140;&#209;&#130;&#208;&#181; &#209;&#129;&#208;&#178;&#208;&#190;&#209;&#142; &#209;&#128;&#208;&#176;&#208;&#177;&#208;&#190;&#209;&#130;&#209;&#131;">
<g id="Rectangle 56" filter="url(#filter0_d_73_12193)">
<rect x="23" y="15" width="119" height="119" rx="14" fill="#FEFEFF"/>
</g>
<g id="Group 106">
<g id="Group">
<path id="Vector" d="M118.282 58.8567C115.035 50.6792 105.03 45.7752 96.5564 49.0205C86.8839 52.7247 90.0909 67.9483 81.3054 71.0266C76.5596 72.6895 69.5439 66.4779 64.7491 65.5252C55.9136 63.7701 47.915 69.939 45.9454 78.4819C43.936 87.1973 47.1588 98.8381 56.8359 101.204C68.3631 104.021 74.3676 93.7677 84.0377 90.8234C93.9611 87.8019 104.995 94.9378 113.21 86.2556C119.279 79.8414 121.498 66.9542 118.282 58.8567Z" fill="url(#paint0_linear_73_12193)"/>
<path id="Vector_2" opacity="0.11" d="M94.003 45.9248H64.0773C62.3924 45.9248 61.0266 47.2763 61.0266 48.9435V58.8193C58.6394 59.4942 56.8916 61.6631 56.8916 64.2364C56.8916 66.8096 58.6395 68.9786 61.0266 69.6534V106.73C61.0266 108.398 62.3924 109.749 64.0773 109.749H94.003C95.6879 109.749 97.0537 108.398 97.0537 106.73V48.9435C97.0537 47.2763 95.6879 45.9248 94.003 45.9248Z" fill="#3A85F4"/>
<path id="Vector_3" d="M100.542 45.9255V103.712C100.542 105.38 99.1759 106.731 97.4911 106.731H67.5653C65.8805 106.731 64.5146 105.38 64.5146 103.712V45.9255C64.5146 44.2583 65.8805 42.9067 67.5653 42.9067H97.4911C99.1759 42.9067 100.542 44.2583 100.542 45.9255Z" fill="white"/>
<path id="Vector_4" d="M100.542 50.6693V45.9255C100.542 44.2583 99.1759 42.9067 97.4911 42.9067H67.5653C65.8805 42.9067 64.5146 44.2583 64.5146 45.9255V50.6692L100.542 50.6693Z" fill="#D4EBFF"/>
<path id="Vector_5" d="M69.6138 47.7629C70.0623 47.7629 70.4259 47.4031 70.4259 46.9593C70.4259 46.5155 70.0623 46.1558 69.6138 46.1558C69.1653 46.1558 68.8018 46.5155 68.8018 46.9593C68.8018 47.4031 69.1653 47.7629 69.6138 47.7629Z" fill="white"/>
<path id="Vector_6" d="M72.5113 47.7629C72.9598 47.7629 73.3233 47.4031 73.3233 46.9593C73.3233 46.5155 72.9598 46.1558 72.5113 46.1558C72.0628 46.1558 71.6992 46.5155 71.6992 46.9593C71.6992 47.4031 72.0628 47.7629 72.5113 47.7629Z" fill="white"/>
<path id="Vector_7" d="M75.397 46.1558C75.8455 46.1558 76.2091 46.5156 76.2091 46.9593C76.2091 47.4031 75.8455 47.7629 75.397 47.7629C74.9486 47.7629 74.585 47.4031 74.585 46.9593C74.585 46.5156 74.9486 46.1558 75.397 46.1558Z" fill="white"/>
<path id="Vector_8" d="M64.2721 67.6741C67.4206 67.6741 69.973 65.1485 69.973 62.033C69.973 58.9175 67.4206 56.3918 64.2721 56.3918C61.1236 56.3918 58.5713 58.9175 58.5713 62.033C58.5713 65.1485 61.1236 67.6741 64.2721 67.6741Z" fill="#D4EBFF"/>
<path id="Vector_9" d="M81.7649 78.7377V92.0865C81.7649 92.6907 81.4325 93.1807 81.0223 93.1807H77.309C76.899 93.1807 76.5664 92.6907 76.5664 92.0865V78.7377C76.5664 78.1335 76.899 77.6436 77.309 77.6436H81.0223C81.4325 77.6436 81.7649 78.1335 81.7649 78.7377Z" fill="#D4EBFF"/>
<path id="Vector_10" d="M74.1682 80.9598V92.2549C74.1682 92.7661 73.8357 93.1807 73.4256 93.1807H69.7124C69.3023 93.1807 68.9697 92.7661 68.9697 92.2549V80.9598C68.9697 80.4485 69.3023 80.0339 69.7124 80.0339H73.4256C73.8357 80.0339 74.1682 80.4485 74.1682 80.9598Z" fill="#D4EBFF"/>
<path id="Vector_11" d="M88.9602 74.3776V92.4626C88.9602 93.0791 88.6277 93.579 88.2176 93.579H84.5044C84.0943 93.579 83.7617 93.0791 83.7617 92.4626V74.3776C83.7617 73.7611 84.0943 73.2612 84.5044 73.2612H88.2176C88.6277 73.2612 88.9602 73.7611 88.9602 74.3776Z" fill="#D4EBFF"/>
<path id="Vector_12" d="M96.1604 70.6088V92.2481C96.1604 92.7632 95.828 93.1809 95.4178 93.1809H91.7046C91.2945 93.1809 90.9619 92.7632 90.9619 92.2481V70.6088C90.9619 70.0937 91.2945 69.676 91.7046 69.676H95.4178C95.828 69.676 96.1604 70.0937 96.1604 70.6088Z" fill="#D4EBFF"/>
<path id="Vector_13" d="M77.2029 55.728H87.88C88.229 55.728 88.5499 55.4967 88.6187 55.1581C88.7123 54.696 88.3576 54.2905 87.9074 54.2905H77.1755C76.7252 54.2905 76.3707 54.696 76.4643 55.1581C76.5329 55.4967 76.8538 55.728 77.2029 55.728Z" fill="#5A5A5A"/>
<path id="Vector_14" d="M83.2251 60.8326H90.1773C90.4046 60.8326 90.6135 60.6221 90.6583 60.3138C90.7193 59.8933 90.4883 59.5242 90.1951 59.5242H83.2073C82.9141 59.5242 82.6833 59.8933 82.7442 60.3138C82.7888 60.6221 82.9978 60.8326 83.2251 60.8326Z" fill="#5A5A5A"/>
<path id="Vector_15" d="M73.5281 58.2159H83.6667C83.9982 58.2159 84.3029 58.0054 84.3682 57.6971C84.4571 57.2766 84.1203 56.9075 83.6928 56.9075H73.5022C73.0746 56.9075 72.738 57.2766 72.8268 57.6971C72.8919 58.0054 73.1966 58.2159 73.5281 58.2159Z" fill="#5A5A5A"/>
<path id="Vector_16" d="M86.116 58.2157H91.9094C92.0989 58.2157 92.273 58.0051 92.3103 57.6969C92.3611 57.2763 92.1686 56.9072 91.9243 56.9072H86.1011C85.8568 56.9072 85.6645 57.2763 85.7152 57.6969C85.7524 58.0051 85.9265 58.2157 86.116 58.2157Z" fill="#5A5A5A"/>
<path id="Vector_17" d="M75.2058 60.8326H80.9993C81.1887 60.8326 81.3628 60.6221 81.4001 60.3138C81.4509 59.8933 81.2585 59.5242 81.0142 59.5242H75.191C74.9466 59.5242 74.7543 59.8933 74.8051 60.3138C74.8423 60.6221 75.0164 60.8326 75.2058 60.8326Z" fill="#5A5A5A"/>
<g id="Group_2">
<path id="Vector_18" d="M97.6303 107.449H89.5835C89.5441 107.449 89.5049 107.434 89.4764 107.407C88.8118 106.781 89.2507 106.011 89.8708 106.011H97.0983C98.5974 106.011 99.8126 104.809 99.8126 103.326V66.405C99.8126 66.3661 99.8272 66.3273 99.8544 66.2991C100.488 65.6415 101.265 66.0757 101.265 66.6894V103.852C101.265 105.838 99.6379 107.449 97.6303 107.449Z" fill="#3A85F4"/>
<path id="Vector_19" d="M82.5616 102.64C82.3687 102.64 82.1838 102.565 82.0475 102.43L81.2006 101.59C80.9172 101.309 80.9176 100.854 81.2014 100.574C81.4853 100.293 81.9452 100.294 82.2287 100.574L82.5616 100.904L82.8946 100.574C83.178 100.294 83.6379 100.293 83.9218 100.574C84.2056 100.854 84.2061 101.309 83.9227 101.59L83.0757 102.43C82.9396 102.565 82.7545 102.64 82.5616 102.64Z" fill="#3A85F4"/>
<path id="Vector_20" d="M97.4869 42.187H67.5613C65.4754 42.187 63.7843 43.8604 63.7843 45.9245V55.6265C60.4356 55.8417 57.7773 58.6042 57.7773 61.9713C57.7773 65.3383 60.4356 68.101 63.7843 68.316V103.906C63.7843 105.863 65.3872 107.449 67.3645 107.449H86.0223C86.0617 107.449 86.1009 107.434 86.1294 107.407C86.794 106.781 86.3551 106.011 85.7348 106.011H67.5613C66.2776 106.011 65.237 104.982 65.237 103.711V68.2692C68.29 67.7791 70.6287 65.1533 70.6287 61.9958C70.6287 58.8384 68.29 56.2127 65.237 55.7227V51.3869H99.8114V62.614C99.8114 62.9597 100.045 63.2775 100.388 63.3451C100.855 63.4371 101.264 63.0873 101.264 62.6434V45.9121C101.264 43.8581 99.5696 42.187 97.4869 42.187ZM69.2418 62.0325C69.2418 64.7468 67.0103 66.9549 64.2673 66.9549C61.5243 66.9549 59.2928 64.7468 59.2928 62.0325C59.2928 59.3182 61.5243 57.1101 64.2673 57.1101C67.0103 57.1101 69.2418 59.3182 69.2418 62.0325ZM99.8112 49.9494H65.237V45.9245C65.237 44.6542 66.2776 43.6245 67.5613 43.6245H97.4871C98.7708 43.6245 99.8114 44.6542 99.8114 45.9245L99.8112 49.9494Z" fill="#3A85F4"/>
</g>
<g id="Group_3">
<path id="Vector_21" d="M66.8409 75.1682H78.1814C78.8618 75.1682 83.4842 71.3598 83.9649 70.9425L86.2208 68.9872C86.3813 68.8482 86.5945 68.7717 86.8214 68.7717H93.3474C94.0282 68.7717 94.681 68.5372 95.1623 68.12L97.9241 65.7261C98.0844 65.5871 98.3019 65.509 98.5288 65.509L102.197 65.509C102.608 65.509 102.986 65.2703 103.067 64.9209C103.177 64.4443 102.759 64.0259 102.229 64.0259L98.514 64.0259C97.8334 64.0259 97.1807 64.2602 96.6994 64.6774L93.9377 67.0714C93.7773 67.2103 93.5597 67.2885 93.3328 67.2885H86.8291C86.1485 67.2885 85.4959 67.5228 85.0146 67.94L82.7661 69.8891C82.6058 70.0282 78.4057 73.6851 78.1788 73.6851H66.8086C66.2784 73.6851 65.8606 74.1035 65.9709 74.5802C66.0519 74.9296 66.4298 75.1682 66.8409 75.1682Z" fill="#3A85F4"/>
</g>
<path id="Vector_22" d="M106.799 53.1127H106.354V52.6727C106.354 52.3272 106.121 52.0097 105.778 51.9417C105.311 51.849 104.902 52.2 104.902 52.6455V53.1127H104.457C104.108 53.1127 103.787 53.344 103.718 53.6827C103.625 54.1447 103.979 54.5502 104.429 54.5502H104.902V54.9902C104.902 55.3356 105.135 55.6532 105.478 55.7211C105.945 55.8139 106.354 55.4628 106.354 55.0174V54.5502H106.826C107.277 54.5502 107.631 54.1447 107.538 53.6827C107.469 53.344 107.148 53.1127 106.799 53.1127Z" fill="#D4EBFF"/>
<path id="Vector_23" d="M111.007 92.6427H110.562V92.2027C110.562 91.8573 110.329 91.5397 109.986 91.4717C109.519 91.379 109.11 91.7301 109.11 92.1755V92.6427H108.665C108.316 92.6427 107.995 92.874 107.926 93.2127C107.833 93.6747 108.187 94.0802 108.637 94.0802H109.11V94.5202C109.11 94.8656 109.343 95.1832 109.686 95.2512C110.153 95.3439 110.562 94.9929 110.562 94.5474V94.0802H111.034C111.485 94.0802 111.839 93.6747 111.746 93.2127C111.677 92.874 111.356 92.6427 111.007 92.6427Z" fill="#D4EBFF"/>
<path id="Vector_24" d="M107.637 86.703C107.425 86.703 107.212 86.6713 107.004 86.6073C106.463 86.4408 106.02 86.0759 105.756 85.5795C105.493 85.0831 105.44 84.5149 105.608 83.9796C105.777 83.4443 106.145 83.0057 106.647 82.7449C107.149 82.4842 107.723 82.4321 108.264 82.5986C108.805 82.7651 109.248 83.13 109.512 83.6264C109.775 84.1228 109.828 84.691 109.66 85.2263C109.491 85.7616 109.122 86.2002 108.621 86.461C108.312 86.6215 107.976 86.703 107.637 86.703ZM107.634 83.9412C107.349 83.9412 107.085 84.1232 106.996 84.4064C106.943 84.5751 106.959 84.7542 107.042 84.9106C107.125 85.067 107.265 85.1822 107.436 85.2346C107.787 85.3427 108.163 85.1478 108.273 84.7994C108.326 84.6306 108.309 84.4515 108.226 84.2951C108.143 84.1387 108.003 84.0236 107.833 83.9711C107.767 83.9508 107.7 83.9412 107.634 83.9412Z" fill="#D4EBFF"/>
<path id="Vector_25" d="M54.4295 77.4236C54.2177 77.4236 54.005 77.3919 53.797 77.3279C53.256 77.1614 52.8128 76.7965 52.5493 76.3001C52.2856 75.8037 52.2332 75.2356 52.4014 74.7002C52.5696 74.1647 52.9385 73.7261 53.4401 73.4654C53.9416 73.2046 54.5158 73.1526 55.0569 73.319C56.1738 73.6628 56.8 74.8416 56.4527 75.9468C56.2845 76.4821 55.9156 76.9207 55.414 77.1816C55.105 77.3423 54.7687 77.4236 54.4295 77.4236ZM54.426 74.6615C54.3191 74.6615 54.2131 74.6872 54.1157 74.7378C53.9577 74.8201 53.8413 74.9584 53.7883 75.1271C53.6789 75.4756 53.8762 75.8472 54.2282 75.9554C54.3989 76.0077 54.5797 75.9915 54.7378 75.9093C54.8958 75.827 55.0122 75.6889 55.0652 75.5201C55.1746 75.1717 54.9773 74.8001 54.6252 74.6917C54.5598 74.6716 54.4929 74.6615 54.426 74.6615Z" fill="#81C2FF"/>
<path id="Vector_26" d="M59.6232 81.4256C59.415 81.4256 59.2035 81.3949 58.9946 81.3307C57.8776 80.987 57.2515 79.8083 57.5988 78.703C57.767 78.1675 58.1359 77.7291 58.6375 77.4682C59.1391 77.2073 59.7134 77.1552 60.2544 77.3218C60.7955 77.4883 61.2386 77.8533 61.5022 78.3496C61.7659 78.846 61.8184 79.4141 61.6501 79.9496C61.3679 80.8481 60.5276 81.4256 59.6232 81.4256ZM59.6237 78.6643C59.5168 78.6643 59.4108 78.69 59.3135 78.7406C59.1554 78.8229 59.039 78.9611 58.986 79.1299C58.8766 79.4782 59.0739 79.8499 59.4259 79.9582C59.7774 80.066 60.1533 79.8712 60.2629 79.5228C60.316 79.354 60.2994 79.175 60.2163 79.0185C60.1332 78.8621 59.9935 78.747 59.8229 78.6945C59.7575 78.6744 59.6904 78.6643 59.6237 78.6643Z" fill="#81C2FF"/>
</g>
<path id="Star 1" d="M63.4503 59.7411C63.7449 58.8437 65.0165 58.8437 65.3111 59.7411C65.4422 60.1403 65.8185 60.4109 66.2386 60.4109C67.1776 60.4109 67.5796 61.6145 66.8172 62.1626C66.4748 62.4088 66.3316 62.8489 66.4632 63.2496C66.7561 64.1417 65.7193 64.8766 64.9569 64.3285C64.6153 64.0829 64.1461 64.0829 63.8045 64.3285C63.0421 64.8766 62.0053 64.1417 62.2982 63.2496C62.4298 62.8489 62.2866 62.4088 61.9442 62.1626C61.1818 61.6145 61.5838 60.4109 62.5228 60.4109C62.9429 60.4109 63.3192 60.1403 63.4503 59.7411Z" fill="white"/>
</g>
</g>
<defs>
<filter id="filter0_d_73_12193" x="0" y="0" width="165" height="165" filterUnits="userSpaceOnUse" color-interpolation-filters="sRGB">
<feFlood flood-opacity="0" result="BackgroundImageFix"/>
<feColorMatrix in="SourceAlpha" type="matrix" values="0 0 0 0 0 0 0 0 0 0 0 0 0 0 0 0 0 0 127 0" result="hardAlpha"/>
<feOffset dy="8"/>
<feGaussianBlur stdDeviation="11.5"/>
<feColorMatrix type="matrix" values="0 0 0 0 0.170833 0 0 0 0 0.5025 0 0 0 0 1 0 0 0 0.2 0"/>
<feBlend mode="normal" in2="BackgroundImageFix" result="effect1_dropShadow_73_12193"/>
<feBlend mode="normal" in="SourceGraphic" in2="effect1_dropShadow_73_12193" result="shape"/>
</filter>
<linearGradient id="paint0_linear_73_12193" x1="79.1768" y1="59.3235" x2="86.8646" y2="96.4431" gradientUnits="userSpaceOnUse">
<stop stop-color="#77C2FE" stop-opacity="0"/>
<stop offset="1" stop-color="#77C2FE"/>
</linearGradient>
</defs>
</svg>
