<svg width="51" height="47" viewBox="0 0 51 47" fill="none" xmlns="http://www.w3.org/2000/svg">
<g id="profile">
<g id="Group 264">
<ellipse id="Ellipse 111" cx="23" cy="22.9663" rx="23" ry="22.9663" fill="#EBF3FF"/>
<g id="Group">
<path id="Vector" fill-rule="evenodd" clip-rule="evenodd" d="M16.3405 33.3013C25.6474 29.0165 38.623 37.3945 38.623 37.3945V38.926C32.7451 45.9327 19.1011 49.0468 10.2861 42.0982C10.8912 39.516 11.4579 37.7683 11.9546 37.2218C12.0048 37.1666 12.0559 37.1103 12.1077 37.0532C13.3058 35.7331 14.9191 33.9555 16.3405 33.3013Z" fill="url(#paint0_linear_159_277)"/>
<path id="Vector_2" fill-rule="evenodd" clip-rule="evenodd" d="M5.68731 38.0799C10.0597 35.3579 15.603 33.0894 15.603 33.0894L14.0346 44.3764C9.74643 42.8193 6.65052 39.2705 5.68731 38.0799Z" fill="url(#paint1_linear_159_277)"/>
<g id="Group_2">
<path id="Vector_3" d="M18.3284 37.1862C21.196 37.7477 25.4086 37.1491 28.4927 35.1192C27.4257 32.6829 26.6969 30.1126 26.3263 27.4795C26.3146 27.3892 26.3057 27.3019 26.2968 27.2173C26.2192 26.6371 26.2072 26.0501 26.2612 25.4673H18.8475C18.8475 25.4673 16.8205 26.3927 16.8205 27.0321C16.8205 27.3745 16.8176 27.7017 16.8116 28.0138C16.7967 28.8652 16.7627 29.6085 16.7182 30.2467C16.6694 31.2735 16.5426 32.2951 16.3386 33.3027C16.3386 33.3027 15.4328 36.619 18.3284 37.1862Z" fill="#FFDAC3"/>
<path id="Vector_4" d="M16.7166 30.2463C22.3332 31.3301 25.5938 28.265 26.3247 27.4791C26.4286 27.3664 26.4819 27.3 26.4819 27.3C26.4227 27.2701 26.3603 27.2437 26.2952 27.2168C24.2045 26.3715 19.4597 27.0438 16.81 28.0134C16.7951 28.8648 16.761 29.6081 16.7166 30.2463Z" fill="#F7C09B"/>
<path id="Vector_5" d="M28.161 24.2504C27.1573 29.6443 20.1873 29.4671 17.1751 29.1281C16.3274 29.034 15.794 28.9259 15.794 28.9259C14.8383 28.6709 14.3051 27.1677 14.0572 25.1985C13.5654 21.3018 14.1868 15.5812 14.8458 14.1182C15.8381 11.9167 17.707 9.53564 24.7263 11.2535C31.7467 12.9729 29.4488 17.3393 28.161 24.2504Z" fill="#FFDAC3"/>
<path id="Vector_6" d="M14.5854 11.1084C15.5448 9.78224 17.5788 8.16168 19.4264 7.1637C23.3954 5.0196 28.4752 7.23118 28.4963 7.24043C34.2297 9.75751 35.7268 14.1376 32.6872 20.9604C29.4729 28.1753 26.4125 27.3636 26.4125 27.3636C26.4125 27.3636 27.0621 26.96 27.0034 24.7113C27 24.5835 26.9949 24.4766 26.9891 24.3847C26.9705 24.1569 27.0038 23.9279 27.0866 23.7148C27.1695 23.5017 27.2996 23.3101 27.4672 23.1544C28.1792 22.5199 28.5265 20.6003 27.93 20.066C27.2106 19.4213 26.1998 20.2043 25.8768 20.8066C25.8154 20.9106 25.7333 21.0008 25.6354 21.0717C25.5376 21.1425 25.4262 21.1925 25.3082 21.2185C25.1902 21.2446 25.068 21.246 24.9494 21.2229C24.8308 21.1997 24.7182 21.1525 24.6187 21.084C22.8342 19.9575 23.9933 17.7046 22.2883 16.3261C20.583 14.9479 17.123 16.105 14.5651 15.0067C11.2167 13.7608 13.8624 12.1079 14.5854 11.1084Z" fill="url(#paint2_linear_159_277)"/>
</g>
<path id="Vector_7" fill-rule="evenodd" clip-rule="evenodd" d="M36.5336 34.78C37.9219 35.3358 40.0645 36.2462 40.7715 37.5564C40.7715 37.5564 35.0853 45.5435 23.3904 45.9327C24.1204 43.3582 25.0168 38.4299 25.7854 36.4599C26.4881 34.6638 27.1598 33.3847 27.7188 33.1107H27.7203C27.7203 33.1107 29.2095 32.6941 30.6152 33.3917C32.4418 33.6839 36.1683 34.6337 36.5336 34.78Z" fill="url(#paint3_linear_159_277)"/>
<path id="Vector_8" fill-rule="evenodd" clip-rule="evenodd" d="M30.6602 33.4214C29.5233 31.7928 27.159 31.3801 27.159 31.3801C25.8057 32.5546 24.0289 41.2692 23.0006 45.9325H23.3904C25.8725 41.5011 30.6602 33.4214 30.6602 33.4214Z" fill="white"/>
<path id="Vector_9" fill-rule="evenodd" clip-rule="evenodd" d="M14.1011 34.1439C14.4238 33.3344 15.8554 31.8698 16.6021 31.5886C16.5839 32.1684 16.4959 32.7439 16.3398 33.3027C15.6711 35.901 14.7592 41.2489 14.0331 44.3764L14.1011 34.1439Z" fill="white"/>
</g>
</g>
<g id="Group 269">
<circle id="Ellipse 112" cx="43.1496" cy="8.37128" r="7.66718" fill="#A6CE39"/>
<path id="coolicon" d="M42.0138 12.6308L38.8901 9.49455L40.2792 8.09988L42.0138 9.8464L46.8721 4.96362L48.2611 6.35829L42.0138 12.6308Z" fill="white"/>
</g>
</g>
<defs>
<linearGradient id="paint0_linear_159_277" x1="14.5406" y1="41.4289" x2="23.6009" y2="43.2556" gradientUnits="userSpaceOnUse">
<stop stop-color="#4498E8"/>
<stop offset="1" stop-color="#5BB2FB"/>
</linearGradient>
<linearGradient id="paint1_linear_159_277" x1="10.6452" y1="33.0894" x2="10.6452" y2="44.3764" gradientUnits="userSpaceOnUse">
<stop stop-color="#CFE6E6"/>
<stop offset="1" stop-color="white"/>
</linearGradient>
<linearGradient id="paint2_linear_159_277" x1="18.413" y1="8.69486" x2="29.7384" y2="26.3771" gradientUnits="userSpaceOnUse">
<stop stop-color="#626262"/>
<stop offset="1" stop-color="#333333"/>
</linearGradient>
<linearGradient id="paint3_linear_159_277" x1="32.0809" y1="32.9873" x2="32.0809" y2="45.9327" gradientUnits="userSpaceOnUse">
<stop stop-color="#CFE6E6"/>
<stop offset="1" stop-color="white"/>
</linearGradient>
</defs>
</svg>
